<svg version="1.1" xmlns="http://www.w3.org/2000/svg" viewBox="0 0 584.8354475271396 677.4191609146515" width="584.8354475271396" height="677.4191609146515" filter="invert(93%) hue-rotate(180deg)">
  <!-- svg-source:excalidraw -->
  
  <defs>
    <style>
      @font-face {
        font-family: "Virgil";
        src: url("https://excalidraw.com/Virgil.woff2");
      }
      @font-face {
        font-family: "Cascadia";
        src: url("https://excalidraw.com/Cascadia.woff2");
      }
    </style>
  </defs>
  <rect x="0" y="0" width="584.8354475271396" height="677.4191609146515" fill="#ffffff"></rect><g stroke-linecap="round" transform="translate(50.280098533592536 56.070579131701834) rotate(0 6.117877687580062 28.73979750909683)"><path d="M1.68 -1.47 L13.06 -1.02 L13.73 59.24 L-1.45 58.86" stroke="none" stroke-width="0" fill="#868e96"></path><path d="M-0.08 0.97 C2.39 0.25, 4.06 0.54, 12.42 0.15 M-0.44 -0.37 C4.24 -0.16, 6.95 0.2, 12.12 -0.02 M11.93 -0.47 C13.65 24.33, 12.65 46.4, 11.12 56.76 M12.38 0.98 C12.04 14.72, 12.86 28.68, 12.12 57.28 M12.33 56.54 C9.06 58.4, 5.93 58.17, -0.83 58.4 M12.12 57.83 C8.25 57.87, 4.4 57.56, -0.32 57 M-1.16 58.48 C1.83 36.8, 0.81 20.1, -1.69 0 M0.2 57.36 C0.64 44.14, -0.26 30.1, -0.74 -0.9" stroke="#e67700" stroke-width="1" fill="none"></path></g><g stroke-linecap="round" transform="translate(62.37357768345987 55.78602668111665) rotate(0 15.365832331596266 29.024349959681956)"><path d="M0.82 -1.02 L32.23 1.76 L29.28 59.43 L-1.55 57.38" stroke="none" stroke-width="0" fill="#768e99"></path><path d="M-0.27 0.52 C9.33 0.76, 22.43 0, 30.79 -0.06 M0.87 -0.27 C8.22 0.51, 17.76 0.15, 31.69 -0.76 M32.58 1.58 C31.49 14.25, 29.53 25.97, 29.86 58.48 M30.41 -0.03 C31.32 12.02, 30.7 25.48, 30.58 58.6 M31.25 59.7 C24.73 59.08, 15.2 59.31, 0.49 57.93 M30.71 58.77 C22.96 58.44, 14.32 57.45, 0.41 58.28 M1.96 56.94 C1.28 41.78, -1.35 21.99, -1.29 -1.22 M0.29 58.25 C-0.73 35.8, -0.86 13.26, 0.84 -0.73" stroke="#e67700" stroke-width="1" fill="none"></path></g><g stroke-linecap="round" transform="translate(91.39792764314166 55.82430276296526) rotate(0 6.117877687580062 28.73979750909683)"><path d="M1.5 1.76 L10.79 1.38 L10.69 56.81 L-0.4 58.23" stroke="none" stroke-width="0" fill="#868e96"></path><path d="M-1.06 0.62 C4.83 0.12, 9.32 -0.07, 12.14 -0.88 M-0.46 0.19 C2.8 0.01, 6.43 -0.43, 11.81 -0.09 M13.08 0.9 C11.65 15.18, 11.9 32.22, 10.66 57.77 M12.74 -0.82 C11.94 22.65, 11.9 46.26, 11.54 57.56 M12.9 58.25 C8.67 58.5, 7.07 57.51, -0.51 57.25 M12.34 57.61 C7.55 57.09, 3.75 57.71, 0.06 57.13 M0.94 59.24 C-2.25 37.36, -1.85 16.01, 1.56 0.4 M-0.61 57.18 C-0.91 40, 0.68 23.58, 0.41 -0.51" stroke="#e67700" stroke-width="1" fill="none"></path></g><g stroke-linecap="round" transform="translate(62.37357768345987 113.55017414989544) rotate(0 7.256087489920446 28.73979750909683)"><path d="M-1.45 1.38 L12.96 -0.67 L14.11 58.23 L-1.38 58.63" stroke="none" stroke-width="0" fill="#868e96"></path><path d="M0.22 0.18 C4.77 -0.12, 9.35 -1.11, 13.62 1.26 M-0.14 -0.03 C4.65 -0.59, 7.41 -0.16, 14.34 0.67 M13.4 -0.72 C13.89 22.21, 13.18 43.84, 16.46 56.84 M14.4 -0.2 C14.65 17.64, 14.11 34.26, 13.75 57.74 M13.53 58.57 C9.32 57.49, 2.81 57.3, 0.82 57.45 M14.13 56.92 C9.41 57.68, 3.79 57.09, 0.36 58.19 M-1.69 57.48 C-1.56 42.21, 1.29 29.77, -0.23 0.57 M-0.74 56.58 C1.19 38.33, 0.76 20.14, 0.75 0.88" stroke="#e67700" stroke-width="1" fill="none"></path></g><g stroke-linecap="round" transform="translate(76.03209531154539 113.8499358187766) rotate(0 7.256087489920446 28.73979750909683)"><path d="M-1.55 -0.67 L14.11 0.75 L13.13 58.63 L-1.29 56.55" stroke="none" stroke-width="0" fill="#868e96"></path><path d="M0.04 -0.04 C4.97 -1.06, 9.28 1.25, 14.12 -1.09 M0.7 -0.55 C4.31 -0.11, 9.46 0.68, 15.08 0.31 M13.64 0.43 C12.62 20.12, 16.14 39.03, 14.46 58.48 M14.36 0.55 C13.75 12.63, 13.68 25.37, 15.34 58.02 M14.87 57.39 C8.64 57.32, 4.79 57.55, 1.04 57.74 M14.81 57.65 C9.92 56.95, 5.54 58.08, -0.4 57.82 M-1.29 56.26 C2.05 35.56, 0.25 13.43, 0.41 -1.22 M0.84 56.75 C0.84 41.45, 1.17 27.33, -0.72 0.69" stroke="#e67700" stroke-width="1" fill="none"></path></g><g stroke-linecap="round" transform="translate(67.35324556869932 40.42019434952044) rotate(0 9.39023086930888 7.398363715213037)"><path d="M-0.4 0.75 L17.4 1.15 L17.49 13.87 L-0.09 13.57" stroke="none" stroke-width="0" fill="#768e99"></path><path d="M-0.15 -1.35 C4.72 1.64, 11.22 -1.4, 19.38 -0.36 M-0.66 -0.14 C5.35 1.01, 11.87 0.54, 19.2 -0.52 M17.61 0.21 C20.16 3.43, 18.68 8.56, 17.57 14.63 M18.27 0.06 C18.19 4.33, 19.37 8.68, 19.25 14.29 M18 14.45 C12.8 14.74, 6.05 15.12, 0.41 13.82 M18.88 14.25 C15.08 15.76, 9.91 15.28, 0.83 14.01 M1.16 15.09 C-0.07 10.78, 0.4 5.01, -0.45 -1.1 M0.31 14.42 C0.43 12.33, -0.66 9.08, -0.57 -0.25" stroke="#e67700" stroke-width="1" fill="none"></path></g><g stroke-linecap="round" transform="translate(152.12091696534958 55.352902597040185) rotate(0 6.117877687580062 28.739797509096846)"><path d="M-1.38 1.15 L10.94 -0.93 L12.15 56.26 L-0.53 56.45" stroke="none" stroke-width="0" fill="#868e96"></path><path d="M-0.75 1.07 C3.3 -0.83, 7.65 -0.15, 12.19 1.17 M-0.14 0.57 C3.23 0.28, 5.77 -0.32, 12.02 -0.27 M14.19 -0.64 C11.73 19.48, 10.15 36.72, 11.83 57.18 M11.47 0.26 C12.66 20.94, 12.47 40.12, 12.99 57.73 M12.93 57.45 C9.52 57.67, 5.3 56.82, -0.95 57.98 M12.54 58.08 C7.94 57.7, 4.86 56.89, 0 57.09 M-0.23 58.05 C-0.04 42.52, -1.05 28.52, -1.79 1.68 M0.75 58.36 C-0.96 45.15, -1.01 31.1, -0.2 0.38" stroke="#e67700" stroke-width="1" fill="none"></path></g><g stroke-linecap="round" transform="translate(148.56401133303552 41.69438496895452) rotate(0 9.39023086930888 7.398363715213037)"><path d="M-1.29 -0.93 L18.69 -1.22 L18.25 13.76 L-1.9 14.22" stroke="none" stroke-width="0" fill="#768e99"></path><path d="M-0.51 -1.41 C4.88 -0.53, 8.51 1.64, 17.36 -1.32 M0.74 0.4 C5.77 -0.7, 10.36 -0.58, 18.98 -0.74 M18.74 0.74 C17.72 4.48, 18.62 9.08, 19.59 13.77 M19.39 0.4 C19.14 4.05, 19.22 9.29, 18.74 14.49 M20.13 15.13 C13.9 13.81, 6.74 15.55, 0.44 15 M18.26 15.24 C15.06 14.19, 9.68 14.38, -0.57 15.53 M0.3 13.89 C-0.43 8.97, -1.31 6.58, -1.09 0.61 M-0.54 15.31 C-0.68 10.87, -0.26 7.71, -0.51 0.43" stroke="#e67700" stroke-width="1" fill="none"></path></g><g stroke-linecap="round" transform="translate(151.83636451476468 111.69428781289332) rotate(0 6.82925881404276 28.73979750909683)"><path d="M-0.09 -1.22 L13.13 -1.03 L11.76 56.91 L0.32 59.22" stroke="none" stroke-width="0" fill="#868e96"></path><path d="M0.43 -0.26 C5.24 1.41, 9.54 -0.86, 13.45 -0.32 M0.31 -0.38 C5.11 -0.35, 10.87 -0.6, 13.76 0.67 M12.03 -0.23 C13.24 15.09, 14.74 29.4, 13.81 55.95 M14.29 -0.68 C14.88 18.97, 14.07 37.03, 13.47 58.05 M13.95 56.77 C8.53 58.06, 5.85 57.65, -0.79 58.16 M14.26 56.9 C8.22 57.1, 2.36 58.08, 0.14 57.4 M-0.6 56 C-1.91 40.27, -1.59 20.51, -1.02 1.5 M-0.77 57.15 C0.21 35.56, -0.27 13.45, -0.65 -0.47" stroke="#e67700" stroke-width="1" fill="none"></path></g><g stroke-linecap="round" transform="translate(164.24189129073102 94.39080556737304) rotate(0 1.1785004148126745 5.237779621389748)"><path d="M-0.53 -1.03 L0.46 -0.57 L2.68 12.22 L0.78 10.45" stroke="none" stroke-width="0" fill="#fa5252"></path><path d="M-0.01 0.23 C0.35 -0.16, 1.02 -0.05, 2.57 0.19 M-0.04 -0.05 C0.83 -0.08, 1.63 0.13, 2.32 0 M2.14 -0.16 C2.85 2.94, 2.35 6.54, 2.63 11.34 M2.75 0.13 C2.39 3.49, 2.33 7.72, 2.34 10.85 M2.17 10.57 C1.66 10.49, 0.72 10.58, 0.23 10.34 M2.36 10.4 C1.47 10.55, 0.74 10.44, 0.03 10.5 M-0.94 11.36 C-0.74 8.41, -0.5 6.26, 0.92 -0.76 M-0.11 10.67 C-0.28 6.91, -0.26 2.5, -0.02 -0.32" stroke="#e67700" stroke-width="1" fill="none"></path></g><g stroke-linecap="round" transform="translate(166.59889212035682 97.79536232127634) rotate(0 24.093786258392925 1.9641673580211574)"><path d="M-1.9 -0.57 L48.51 1.74 L48.96 3.9 L0.53 5.28" stroke="none" stroke-width="0" fill="#4c6ef5"></path><path d="M-1.51 -1.4 C13.22 -0.93, 28.9 1.12, 49.03 0.9 M0.21 -0.79 C11.91 1.19, 23.22 0.18, 48.69 -0.82 M48.4 -0.27 C48.21 0.83, 48.28 2.59, 48.4 4.18 M48.18 -0.08 C48.18 1.02, 48.21 1.97, 48.22 3.97 M48.65 4.14 C35.09 5.13, 26.28 3.01, 0.94 5.69 M47.58 4.71 C37.99 3.5, 27.69 3.82, -0.61 3.63 M-0.29 4.09 C-0.17 3.33, 0.38 1.87, 0.27 -0.3 M-0.14 4.04 C-0.12 2.79, 0 1.71, -0.05 -0.1" stroke="#e67700" stroke-width="1" fill="none"></path></g><g stroke-linecap="round" transform="translate(124.43476616816884 78.41557772213432) rotate(0 32.08140018101233 19.903562561281106)"><path d="M0 0 C0 0, 0 0, 0 0 M0 0 C0 0, 0 0, 0 0 M-1.06 6.93 C0.97 3.57, 3.42 1.97, 5.79 0.55 M-0.51 6.13 C0.82 4.36, 2.95 3.07, 4.95 0.34 M0.6 12.19 C3.32 10.32, 6.47 6.57, 9.88 -0.13 M0.28 11.73 C3.47 8.15, 7.81 3.96, 10.84 0.54 M-1.04 17.39 C7.65 9.94, 13.59 2.77, 15.04 -0.22 M-1.06 18.51 C4.13 13.01, 7.58 7.99, 16.23 0.36 M-0.39 23.47 C7.25 15.85, 13.95 9.8, 19.7 1.05 M0.46 25 C9.51 15.15, 16.2 6.08, 22.01 -0.61 M-1.8 30.18 C10.07 20.67, 16.17 9.34, 25.79 -0.58 M0.24 30.43 C10.33 19.3, 19.89 8.62, 26.15 0.93 M-2.21 37.77 C7.5 24.57, 19.69 14.92, 30.69 0.41 M0.28 36.68 C9.6 26.45, 17.67 15.23, 31.83 -0.52 M0.91 40.27 C13.42 29.53, 22.51 16.41, 36.34 -0.25 M1.83 41.26 C10.45 30.65, 18.42 23.01, 36.54 0.25 M6.12 42.16 C15.76 28.95, 24.7 18.68, 43.07 1.82 M5.62 40.83 C17.54 27.7, 28.88 14.72, 42.46 -0.64 M13.28 42.62 C21.44 33.07, 25.76 21.55, 46.92 0.09 M11.78 41.28 C20.79 32.18, 28.02 23.66, 47.48 1.17 M15.42 39.87 C28.36 28.94, 39.24 12.48, 53.43 -0.47 M17.34 40.98 C29.34 26.89, 43.01 12.89, 53.67 0.53 M24.57 42.17 C30.46 33.27, 38.3 23.37, 58.96 1.1 M22.74 41.51 C31.6 30.29, 42.38 18.31, 58.23 0.1 M29.06 40.22 C36.54 32.34, 42.51 22.92, 64.5 0.13 M26.81 41.01 C37.92 30.41, 49.24 17.3, 63.94 0.56 M31.38 41.62 C41.69 30.39, 53.93 19.2, 67.04 1.05 M33.23 40.43 C43.74 27.91, 55 15.12, 66.22 2.27 M37.46 39.33 C45.87 35.71, 52.9 26.33, 67.3 9.59 M37.5 40.84 C44.54 34.51, 50.5 27.57, 67.51 9.15 M42.49 42.04 C53.93 33.47, 58.67 21.79, 66.32 12.85 M43.44 41.65 C49.31 35.34, 55.15 29.09, 67.49 13.79 M48.23 42.69 C56.42 34.46, 62.54 27.91, 68.12 19.15 M48.08 41.97 C52.5 35.62, 58.64 31.92, 66.43 21 M52.91 40.82 C58.46 37.33, 60.76 30.5, 66.25 27.32 M54.25 40.82 C58.39 34.59, 63.49 30.89, 67.31 26.04 M59.87 42.25 C61.09 39.03, 64.92 35.56, 66.8 33.18 M59.46 40.8 C61.7 38.53, 63.84 36.31, 66.25 32.89 M-0.09 39.73 C-0.09 39.73, -0.09 39.73, -0.09 39.73 M-0.09 39.73 C-0.09 39.73, -0.09 39.73, -0.09 39.73 M5.82 40.62 C3.85 38.13, 1.93 35.57, 0.17 34.5 M5.96 40.34 C5 38.78, 3.74 37.96, 0.21 34.64 M13.34 39.59 C8.42 36.8, 6.25 33.15, -0.32 30.3 M12.37 39.04 C7.65 36.55, 3.57 32.84, -0.71 28.61 M19.48 41.85 C10.42 34.29, 5.78 28.59, 0.47 25.37 M17.7 39.56 C14.29 35.91, 10.43 32.78, -0.68 24.5 M24.93 39.83 C19.5 34.27, 10.29 29.25, -0.02 18.22 M24.08 40.27 C15.26 32.5, 7.61 25, -0.19 17.72 M30.18 41.71 C24.02 30.75, 15.69 25.08, -0.68 14.2 M30.17 39.36 C18.86 28.75, 8.33 20.33, 0.43 14.43 M35.89 38.8 C26.71 34.54, 20.43 25.68, 0 8.79 M37.68 40.36 C27.07 31.72, 18.43 22.71, -0.2 7.99 M40.54 39.35 C31.2 30.59, 23.33 22.99, -1.6 1.64 M42.36 38.63 C32.04 31.22, 20.28 22.03, 0.59 2.4 M47.02 38.28 C38.19 31.97, 28.73 20.23, -0.14 -0.98 M49.27 38.91 C34.39 28.29, 20.97 15.45, 1.25 -2.36 M55.87 38.97 C37.93 23.7, 19.1 10.23, 9.25 -0.42 M55.71 40 C43.9 31.72, 34.57 21.95, 7.2 -0.83 M60.18 39.72 C40.08 24.22, 22.52 6.39, 14.43 -0.44 M60.73 39.04 C50.61 31.11, 41.05 22.74, 14.01 -1.86 M64.83 36.81 C55.99 28.56, 42.92 17.75, 20.97 -2.93 M66.05 39.39 C47.54 24.15, 31.09 7.16, 18.73 -0.62 M65.84 32.37 C49.19 20.98, 37.47 9.9, 24.11 -2.7 M66.07 32.39 C50.39 21.98, 36.89 8.97, 25.49 -2.49 M63.97 29.9 C58.53 20.83, 48.67 12.77, 31.35 -1.79 M65.12 27.71 C52.73 16.94, 42.26 6.35, 30.82 -1.55 M67.2 23 C56.48 12.59, 44.07 4.33, 39.77 0.36 M64.57 21.9 C54.68 13.95, 45.79 5.33, 38.56 -1.84 M63.85 18.98 C58.8 12.83, 53.5 9.73, 42.83 -2.65 M65.66 16.85 C60.39 12.12, 54.11 7.68, 43.34 -1.18 M65.11 10.05 C63.05 6.94, 57.42 6.65, 51.2 0.21 M64.65 10.85 C61.71 8.22, 55.9 4.77, 51.04 -1.88 M65.64 5.61 C61.58 5.12, 59.99 1.56, 55.97 -2.42 M65.27 6.98 C62.29 3.56, 58.88 0.45, 56.46 -1.28 M65.42 0.98 C64.07 -0.06, 63.33 -0.87, 62.11 -1.66 M65.19 1.05 C64.4 0.3, 63.33 -0.47, 62.42 -1.59" stroke="#fa5252" stroke-width="0.5" fill="none"></path><path d="M-0.3 -0.47 C27.24 2.03, 51.64 1.35, 63.05 -0.72 M0.14 0.98 C16.14 0.48, 33.43 -0.31, 64.05 -0.2 M64.32 -1.53 C64.9 12.99, 65.47 23.95, 62.81 41.31 M63.98 0.57 C64.12 13.64, 64.32 26.06, 63.64 39.03 M63.01 40.81 C44.28 38.77, 21.41 41.64, -1.69 39.81 M64.36 39.69 C49.34 40.51, 33.32 40.01, -0.74 38.91 M-1.02 41.3 C2.05 23.07, 1.68 7.68, -0.67 -0.4 M-0.65 39.34 C0.23 25.75, 0.01 12.41, -0.95 -0.29" stroke="#e67700" stroke-width="1" fill="none"></path></g><g stroke-linecap="round" transform="translate(106.88820443651366 74.48724300609194) rotate(0 1.9641673580212 22.391507881441257)"><path d="M0.78 -0.03 L4.46 1.35 L5.32 45.73 L-1.78 43.17" stroke="none" stroke-width="0" fill="#fa5252"></path><path d="M0.36 0.31 C1.07 0.19, 1.59 -0.13, 3.76 0.08 M-0.06 -0.01 C0.97 -0.2, 1.72 -0.08, 3.9 0.11 M4.44 1.65 C5.05 11.59, 2.61 22.15, 4.42 44.67 M3.9 0.72 C4.02 11.79, 3.32 22.38, 4.33 45.02 M4.31 44.57 C2.89 45.15, 1.16 44.8, -0.25 44.54 M3.98 44.82 C2.32 44.72, 0.81 44.6, 0.17 44.64 M1.76 43.33 C1.61 27.95, -0.44 13.82, 0.75 -1.38 M-0.04 44.17 C0.03 28.25, -0.66 12.47, 0.16 0.87" stroke="#e67700" stroke-width="1" fill="none"></path></g><g stroke-linecap="round" transform="translate(54.24851924154632 93.34324964309508) rotate(0 1.440389395882221 5.237779621389777)"><path d="M0.53 1.35 L4.27 0.95 L1.1 8.86 L1.24 11" stroke="none" stroke-width="0" fill="#fa5252"></path><path d="M0.12 0.13 C0.64 -0.13, 1.47 0.04, 2.65 0.04 M0.07 -0.12 C1.13 -0.03, 2.27 0.08, 2.78 0.01 M3.45 0.66 C2.2 3.13, 3.17 4.62, 2.45 10.28 M2.97 0.11 C2.6 3.33, 3.09 7.6, 2.94 10.17 M3.02 10.73 C1.63 10.46, 0.68 10.28, 0.22 10.53 M2.79 10.43 C1.94 10.35, 1.34 10.38, 0.06 10.4 M0.72 9.66 C-0.44 6.34, 0.3 1.9, 0.6 -0.68 M-0.14 10.2 C-0.49 7.67, 0.09 5.62, 0.2 -0.01" stroke="#e67700" stroke-width="1" fill="none"></path></g><g stroke-linecap="round" transform="translate(54.30089703776025 96.87875088753316) rotate(0 1.3094449053473909 1.9641673580211574)"><path d="M1.39 0.95 L0.84 -1.61 L3.86 4.46 L0.36 2.06" stroke="none" stroke-width="0" fill="#4c6ef5"></path><path d="M-0.15 -0.09 C0.88 0.04, 1.78 0.03, 2.87 -0.08 M-0.01 -0.03 C0.76 0.09, 1.47 0.03, 2.52 0.03 M2.35 0.29 C2.74 1.48, 2.48 2.93, 2.84 3.92 M2.52 -0.15 C2.71 1.51, 2.65 2.81, 2.72 4.12 M2.4 3.93 C1.81 3.79, 1.54 4, -0.03 4 M2.52 3.81 C1.89 3.82, 0.99 3.85, 0.1 4.04 M-0.13 3.85 C0.12 2.76, 0.2 1.89, -0.18 -0.02 M-0.19 3.87 C0.04 3.16, 0.09 2.05, 0.05 0.13" stroke="#e67700" stroke-width="1" fill="none"></path></g><g stroke-linecap="round" transform="translate(90.80822099884699 91.9814269415337) rotate(0 7.987613922619403 2.946251037031743)"><path d="M0 0 C0 0, 0 0, 0 0 M0 0 C0 0, 0 0, 0 0 M0.2 5.94 C1.5 3.82, 2.28 2.29, 4.3 1.01 M0.3 5.88 C1.57 4.22, 3.09 2.68, 5.32 0.5 M5.79 5.72 C7.96 3.93, 8.97 1.16, 11.06 0.24 M5.76 5.65 C7.35 3.62, 8.92 1.92, 10.37 0.19 M10.8 6.19 C12.32 3.74, 13.23 3.3, 15.24 -0.07 M11.14 5.68 C11.75 4.28, 12.99 3.19, 15.56 0.27" stroke="#fab005" stroke-width="0.5" fill="none"></path><path d="M-0.69 0.34 C4.25 0.29, 12.58 -0.46, 15.93 0.8 M-0.12 0.44 C2.94 0.09, 6.37 0.24, 16.63 0.43 M16.12 -0.03 C15.69 2.03, 16.27 4.27, 16.4 6 M16.09 0.07 C15.98 1.73, 16.09 4.08, 15.81 6.03 M14.95 4.92 C11.02 6.21, 3.39 6.35, 0.33 4.92 M16.65 5.31 C11.99 5.34, 7.95 6.45, -0.58 6.45 M0.22 5.49 C0.36 4.2, -0.25 3.24, -0.36 -0.16 M0.05 6.15 C0.17 4.43, 0.13 3.16, 0.21 0.14" stroke="#e67700" stroke-width="1" fill="none"></path></g><g stroke-linecap="round" transform="translate(152.06405367100024 97.07516762333529) rotate(0 5.709179787314838 2.7891176483900466)"><path d="M0 0 C0 0, 0 0, 0 0 M0 0 C0 0, 0 0, 0 0 M0.35 5.21 C1.43 3.34, 2.7 2.85, 4.91 0.3 M0.24 5.75 C1.8 4.14, 3.46 2.64, 5.23 0.2 M6 6.15 C6.58 3.86, 8.86 2.74, 11.1 0.17 M5.49 5.82 C7.07 4.09, 8.96 1.79, 10.36 -0.15 M11.14 5.23 C11.78 4.84, 12.25 3.72, 13.37 2.84 M10.86 5.54 C11.75 4.69, 12.57 3.74, 13.82 2.43" stroke="#fab005" stroke-width="0.5" fill="none"></path><path d="M-0.9 0.16 C4.13 -0.39, 6 0.55, 10.49 -0.13 M-0.4 0.04 C2.76 0.08, 6.86 0.25, 11.78 -0.39 M11.19 -0.1 C11.75 2.08, 11.83 4.28, 11.54 5.29 M11.45 -0.16 C11.58 1.51, 11.29 2.61, 11.66 5.34 M12.31 5.8 C7.86 5.84, 4.8 4.81, -0.34 4.73 M11.65 5.29 C9.44 6, 6.2 5.89, -0.44 5.39 M0.32 5.22 C-0.28 3.99, -0.36 2.31, -0.29 -0.53 M0.11 5.57 C0.07 4.25, 0.19 2.68, -0.25 -0.22" stroke="#e67700" stroke-width="1" fill="none"></path></g><g stroke-linecap="round" transform="translate(11.193970753722397 11.91502430213069) rotate(0 108.22911480075061 86.57087325574965)"><path d="M1.7 -0.56 C69.53 0.61, 137.73 -0.47, 216.1 -0.26 M-0.67 0.22 C77.55 0.33, 154.21 -0.74, 217.11 0.21 M217.59 -0.05 C217.18 51.28, 216.17 100.81, 214.9 173.95 M216.96 0.98 C216.09 56.45, 217.52 111.12, 216.46 172.5 M216.26 173.64 C165.08 172.45, 112.47 172.22, -1.56 174.61 M217.11 173.91 C166.79 172.78, 117.71 171.88, -0.18 173.47 M-0.93 173.06 C-2.22 132.63, -2.03 91.27, -0.57 0.32 M0.27 173.82 C0.03 106.58, -1.56 38.27, 0.62 0.26" stroke="#2b8a3e" stroke-width="1" fill="none"></path></g><g transform="translate(196.21853587931605 13.859943888505427) rotate(0 0.8929467574843102 1.7858935149686204)"><text x="0" y="2.5717870299372394" font-family="Virgil, Segoe UI Emoji" font-size="2.828400995550473px" fill="#2b8a3e" text-anchor="start" style="white-space: pre;" direction="ltr"></text></g><g transform="translate(65.70511886335726 134.99824949389392) rotate(0 3.274138110775766 6.548276221551603)"><text x="0" y="9.096552443103214" font-family="Virgil, Segoe UI Emoji" font-size="9.524765413165975px" fill="#2b8a3e" text-anchor="start" style="white-space: pre;" direction="ltr">1</text></g><g transform="translate(80.52351547060789 134.7512762171064) rotate(0 3.274138110775766 6.548276221551603)"><text x="0" y="9.096552443103214" font-family="Virgil, Segoe UI Emoji" font-size="9.524765413165975px" fill="#2b8a3e" text-anchor="start" style="white-space: pre;" direction="ltr">2</text></g><g transform="translate(54.59132140791962 76.95952944882958) rotate(0 3.274138110775766 6.548276221551603)"><text x="0" y="9.096552443103214" font-family="Virgil, Segoe UI Emoji" font-size="9.524765413165975px" fill="#2b8a3e" text-anchor="start" style="white-space: pre;" direction="ltr">3</text></g><g transform="translate(69.40971801517026 78.19439583276721) rotate(0 3.274138110775766 6.548276221551603)"><text x="0" y="9.096552443103214" font-family="Virgil, Segoe UI Emoji" font-size="9.524765413165975px" fill="#2b8a3e" text-anchor="start" style="white-space: pre;" direction="ltr">4</text></g><g transform="translate(95.09493880107084 76.95952944882958) rotate(0 3.274138110775766 6.548276221551603)"><text x="0" y="9.096552443103214" font-family="Virgil, Segoe UI Emoji" font-size="9.524765413165975px" fill="#2b8a3e" text-anchor="start" style="white-space: pre;" direction="ltr">5</text></g><g transform="translate(71.38550422947014 41.64235086821617) rotate(0 3.274138110775766 6.548276221551603)"><text x="0" y="9.096552443103214" font-family="Virgil, Segoe UI Emoji" font-size="9.524765413165975px" fill="#2b8a3e" text-anchor="start" style="white-space: pre;" direction="ltr">6</text></g><g stroke-linecap="round"><g stroke-opacity="0.6" fill-opacity="0.6" transform="translate(75.44161896574656 18.554932623684522) rotate(0 0.8764711791991431 81.5118196655252)"><path d="M0 0 C0.29 27.17, 1.46 135.85, 1.75 163.02 M0 0 C0.29 27.17, 1.46 135.85, 1.75 163.02" stroke="#000000" stroke-width="2" fill="none"></path></g></g><g stroke-linecap="round"><g stroke-opacity="0.6" fill-opacity="0.6" transform="translate(39.21414355884622 171.64523192381068) rotate(0 33.598061869302455 2.842170943040401e-14)"><path d="M0 0 C11.2 0, 56 0, 67.2 0 M0 0 C11.2 0, 56 0, 67.2 0" stroke="#000000" stroke-width="2" fill="none"></path></g></g><g stroke-opacity="0.6" fill-opacity="0.6" transform="translate(28.35490561386746 165.4275557779908) rotate(0 2.6788402724529305 6.548276221551603)"><text x="2.67884027245293" y="9.096552443103214" font-family="Virgil, Segoe UI Emoji" font-size="9.524765413165975px" fill="#000000" text-anchor="middle" style="white-space: pre;" direction="ltr">x</text></g><g stroke-opacity="0.6" fill-opacity="0.6" transform="translate(63.70041798214015 10) rotate(0 2.976489191614405 6.5482762215516175)"><text x="2.976489191614366" y="9.096552443103214" font-family="Virgil, Segoe UI Emoji" font-size="9.524765413165973px" fill="#000000" text-anchor="middle" style="white-space: pre;" direction="ltr">y</text></g><g stroke-linecap="round"><g stroke-opacity="0.6" fill-opacity="0.6" transform="translate(156.66128157153867 13.296105548489379) rotate(0 0.8764711791991431 85.30986144205505)"><path d="M0 0 C0.29 28.44, 1.46 142.18, 1.75 170.62 M0 0 C0.29 28.44, 1.46 142.18, 1.75 170.62" stroke="#000000" stroke-width="2" fill="none"></path></g></g><g stroke-opacity="0.6" fill-opacity="0.6" transform="translate(143.75145234899992 14.057247679692694) rotate(0 2.976489191614405 6.5482762215516175)"><text x="2.976489191614366" y="9.096552443103214" font-family="Virgil, Segoe UI Emoji" font-size="9.524765413165973px" fill="#000000" text-anchor="middle" style="white-space: pre;" direction="ltr">y</text></g><g stroke-linecap="round"><g stroke-opacity="0.6" fill-opacity="0.6" transform="translate(120.72596322437153 169.30797544594608) rotate(0 33.598061869302455 2.842170943040401e-14)"><path d="M0 0 C11.2 0, 56 0, 67.2 0 M0 0 C11.2 0, 56 0, 67.2 0" stroke="#000000" stroke-width="2" fill="none"></path></g></g><g stroke-opacity="0.6" fill-opacity="0.6" transform="translate(175.01774959986642 168.31617521875117) rotate(0 2.6788402724529305 6.548276221551603)"><text x="2.67884027245293" y="9.096552443103214" font-family="Virgil, Segoe UI Emoji" font-size="9.524765413165975px" fill="#000000" text-anchor="middle" style="white-space: pre;" direction="ltr">z</text></g><g transform="translate(305.61378495909844 88.79307803308825) rotate(0 15.424720366813062 5.635955518643229)"><text x="15.424720366813066" y="8.27191103728647" font-family="Virgil, Segoe UI Emoji" font-size="8.305618659053188px" fill="#a61e4d" text-anchor="middle" style="white-space: pre;" direction="ltr">Soldado</text></g><g stroke-linecap="round"><g transform="translate(272.2953597945175 146.8201932786596) rotate(0 -78.51588009339287 93.25409581695813)"><path d="M0 0 C-26.17 31.08, -130.86 155.42, -157.03 186.51 M0 0 C-26.17 31.08, -130.86 155.42, -157.03 186.51" stroke="#a61e4d" stroke-width="2" fill="none"></path></g></g><g stroke-linecap="round" transform="translate(289.8115613555178 82.14193425035327) rotate(0 34.118639833718134 9.895882549173677)"><path d="M0 0 C24.59 0, 49.17 0, 68.24 0 M0 0 C18.58 0, 37.16 0, 68.24 0 M68.24 0 C68.24 4.82, 68.24 9.63, 68.24 19.79 M68.24 0 C68.24 5.05, 68.24 10.1, 68.24 19.79 M68.24 19.79 C44.74 19.79, 21.25 19.79, 0 19.79 M68.24 19.79 C51.23 19.79, 34.21 19.79, 0 19.79 M0 19.79 C0 14.5, 0 9.22, 0 0 M0 19.79 C0 14.55, 0 9.31, 0 0" stroke="#a61e4d" stroke-width="2" fill="none"></path></g><g stroke-linecap="round" transform="translate(72.7309936552133 333.5292189021341) rotate(0 26.585953117182953 8.861984372394339)"><path d="M0 0 C11.55 0, 23.1 0, 53.17 0 M0 0 C15.58 0, 31.16 0, 53.17 0 M53.17 0 C53.17 4.85, 53.17 9.71, 53.17 17.72 M53.17 0 C53.17 6.65, 53.17 13.3, 53.17 17.72 M53.17 17.72 C33.46 17.72, 13.75 17.72, 0 17.72 M53.17 17.72 C42.07 17.72, 30.96 17.72, 0 17.72 M0 17.72 C0 13.23, 0 8.73, 0 0 M0 17.72 C0 10.77, 0 3.81, 0 0" stroke="#a61e4d" stroke-width="2" fill="none"></path></g><g transform="translate(77.07590272936386 337.30090589585933) rotate(0 20.022473553074633 5.339326280819908)"><text x="0" y="7.678652561639815" font-family="Virgil, Segoe UI Emoji" font-size="8.305618659053188px" fill="#a61e4d" text-anchor="start" style="white-space: pre;" direction="ltr">PiernaDch</text></g><g stroke-linecap="round" transform="translate(140.34573434029744 333.58014499452423) rotate(0 26.585953117182953 8.861984372394339)"><path d="M0 0 C13.29 0, 26.58 0, 53.17 0 M0 0 C19.24 0, 38.49 0, 53.17 0 M53.17 0 C53.17 6.72, 53.17 13.44, 53.17 17.72 M53.17 0 C53.17 6.8, 53.17 13.6, 53.17 17.72 M53.17 17.72 C38.58 17.72, 23.99 17.72, 0 17.72 M53.17 17.72 C40.84 17.72, 28.5 17.72, 0 17.72 M0 17.72 C0 11.85, 0 5.97, 0 0 M0 17.72 C0 11.5, 0 5.27, 0 0" stroke="#a61e4d" stroke-width="2" fill="none"></path></g><g transform="translate(147.8269852087485 336.1819370824453) rotate(0 17.056181174841413 5.635955518643236)"><text x="0" y="8.27191103728647" font-family="Virgil, Segoe UI Emoji" font-size="8.305618659053186px" fill="#a61e4d" text-anchor="start" style="white-space: pre;" direction="ltr">PiernaIzq</text></g><g stroke-linecap="round"><g transform="translate(152.48393397178802 333.498400973265) rotate(0 63.93235876739618 -92.04357325446928)"><path d="M0 0 C21.31 -30.68, 106.55 -153.41, 127.86 -184.09 M0 0 C21.31 -30.68, 106.55 -153.41, 127.86 -184.09" stroke="#a61e4d" stroke-width="2" fill="none"></path></g></g><g stroke-linecap="round" transform="translate(242.87815433879587 129.60283507778124) rotate(0 73.69709270107069 9.502490462888758)"><path d="M147.39 9.5 C147.39 9.92, 147.18 10.33, 146.76 10.74 C146.35 11.15, 145.71 11.56, 144.88 11.96 C144.05 12.36, 143.01 12.76, 141.78 13.14 C140.56 13.52, 139.12 13.9, 137.52 14.25 C135.92 14.61, 134.12 14.96, 132.16 15.29 C130.21 15.62, 128.08 15.93, 125.81 16.22 C123.54 16.51, 121.1 16.79, 118.56 17.04 C116.02 17.29, 113.32 17.53, 110.55 17.73 C107.77 17.94, 104.86 18.12, 101.9 18.28 C98.94 18.44, 95.87 18.57, 92.77 18.68 C89.67 18.79, 86.5 18.87, 83.32 18.92 C80.14 18.98, 76.9 19, 73.7 19 C70.49 19, 67.26 18.98, 64.08 18.92 C60.9 18.87, 57.72 18.79, 54.62 18.68 C51.53 18.57, 48.46 18.44, 45.49 18.28 C42.53 18.12, 39.63 17.94, 36.85 17.73 C34.07 17.53, 31.38 17.29, 28.83 17.04 C26.29 16.79, 23.85 16.51, 21.59 16.22 C19.32 15.93, 17.18 15.62, 15.23 15.29 C13.28 14.96, 11.48 14.61, 9.87 14.25 C8.27 13.9, 6.84 13.52, 5.61 13.14 C4.38 12.76, 3.34 12.36, 2.51 11.96 C1.68 11.56, 1.05 11.15, 0.63 10.74 C0.21 10.33, 0 9.92, 0 9.5 C0 9.09, 0.21 8.67, 0.63 8.26 C1.05 7.85, 1.68 7.44, 2.51 7.04 C3.34 6.64, 4.38 6.25, 5.61 5.87 C6.84 5.48, 8.27 5.11, 9.87 4.75 C11.48 4.39, 13.28 4.05, 15.23 3.72 C17.18 3.39, 19.32 3.08, 21.59 2.78 C23.85 2.49, 26.29 2.22, 28.83 1.96 C31.38 1.71, 34.07 1.48, 36.85 1.27 C39.63 1.07, 42.53 0.88, 45.49 0.72 C48.46 0.57, 51.53 0.43, 54.62 0.32 C57.72 0.22, 60.9 0.14, 64.08 0.08 C67.26 0.03, 70.49 0, 73.7 0 C76.9 0, 80.14 0.03, 83.32 0.08 C86.5 0.14, 89.67 0.22, 92.77 0.32 C95.87 0.43, 98.94 0.57, 101.9 0.72 C104.86 0.88, 107.77 1.07, 110.55 1.27 C113.32 1.48, 116.02 1.71, 118.56 1.96 C121.1 2.22, 123.54 2.49, 125.81 2.78 C128.08 3.08, 130.21 3.39, 132.16 3.72 C134.12 4.05, 135.92 4.39, 137.52 4.75 C139.12 5.11, 140.56 5.48, 141.78 5.87 C143.01 6.25, 144.05 6.64, 144.88 7.04 C145.71 7.44, 146.35 7.85, 146.76 8.26 C147.18 8.67, 147.29 9.3, 147.39 9.5 C147.5 9.71, 147.5 9.3, 147.39 9.5" stroke="#a61e4d" stroke-width="2" fill="none"></path></g><g transform="translate(270.21658746886305 132.8787081262664) rotate(0 48.94382424084915 5.635955518643229)"><text x="0" y="8.27191103728647" font-family="Virgil, Segoe UI Emoji" font-size="8.305618659053188px" fill="#a61e4d" text-anchor="start" style="white-space: pre;" direction="ltr">transformaciones_globales</text></g><g stroke-linecap="round"><g transform="translate(316.78641349459735 100.03953141546063) rotate(0 0 14.570485376429446)"><path d="M0 0 C0 4.86, 0 24.28, 0 29.14 M0 0 C0 4.86, 0 24.28, 0 29.14" stroke="#a61e4d" stroke-width="2" fill="none"></path></g></g><g transform="translate(323.5437400459848 107.3123215886738) rotate(0 46.12584648152756 11.123596418374802)"><text x="0" y="8.123596418374808" font-family="Virgil, Segoe UI Emoji" font-size="8.305618659053188px" fill="#000000" text-anchor="start" style="white-space: pre;" direction="ltr">T (0,pierna.alto,0)</text><text x="0" y="19.247192836749615" font-family="Virgil, Segoe UI Emoji" font-size="8.305618659053188px" fill="#000000" text-anchor="start" style="white-space: pre;" direction="ltr">R (rotacion_animacion, y)</text></g><g stroke-linecap="round" transform="translate(69.32822750527612 410.308649054938) rotate(0 26.585953117182953 8.861984372394339)"><path d="M0 0 C19.26 0, 38.51 0, 53.17 0 M0 0 C12.99 0, 25.98 0, 53.17 0 M53.17 0 C53.17 5.95, 53.17 11.9, 53.17 17.72 M53.17 0 C53.17 6.53, 53.17 13.07, 53.17 17.72 M53.17 17.72 C35.34 17.72, 17.51 17.72, 0 17.72 M53.17 17.72 C33.16 17.72, 13.14 17.72, 0 17.72 M0 17.72 C0 11.06, 0 4.4, 0 0 M0 17.72 C0 11.05, 0 4.38, 0 0" stroke="#a61e4d" stroke-width="2" fill="none"></path></g><g transform="translate(84.6051965330189 415.6609487099198) rotate(0 10.08539408599313 5.635955518643236)"><text x="0" y="8.27191103728647" font-family="Virgil, Segoe UI Emoji" font-size="8.305618659053188px" fill="#a61e4d" text-anchor="start" style="white-space: pre;" direction="ltr">Cubo</text></g><g stroke-linecap="round"><g transform="translate(92.014530936445 351.31672889069193) rotate(0 0.38996496860136176 29.0523901608029)"><path d="M0 0 C0.13 9.68, 0.65 48.42, 0.78 58.1 M0 0 C0.13 9.68, 0.65 48.42, 0.78 58.1" stroke="#a61e4d" stroke-width="2" fill="none"></path></g></g><g transform="translate(10 364.5755378231389) rotate(0 35.89213777662269 18.09438350722302)"><text x="35.89213777662271" y="7.047191753611511" font-family="Virgil, Segoe UI Emoji" font-size="6.789088225603378px" fill="#000000" text-anchor="middle" style="white-space: pre;" direction="ltr">E (0.75, 4, 1)</text><text x="35.89213777662271" y="16.09438350722302" font-family="Virgil, Segoe UI Emoji" font-size="6.789088225603378px" fill="#000000" text-anchor="middle" style="white-space: pre;" direction="ltr">T (0, -pierna.alto/2, 0)</text><text x="35.89213777662271" y="25.141575260834532" font-family="Virgil, Segoe UI Emoji" font-size="6.789088225603378px" fill="#000000" text-anchor="middle" style="white-space: pre;" direction="ltr">R (giro_piernas, x)</text><text x="35.89213777662271" y="34.18876701444604" font-family="Virgil, Segoe UI Emoji" font-size="6.789088225603378px" fill="#000000" text-anchor="middle" style="white-space: pre;" direction="ltr">T (-pierna.ancho/2, 0, 0)</text></g><g stroke-linecap="round" transform="translate(164.55202924879268 412.1680224587529) rotate(0 26.585953117182953 8.861984372394339)"><path d="M0 0 C16.31 0, 32.63 0, 53.17 0 M0 0 C13.17 0, 26.35 0, 53.17 0 M53.17 0 C53.17 6.72, 53.17 13.45, 53.17 17.72 M53.17 0 C53.17 5.91, 53.17 11.82, 53.17 17.72 M53.17 17.72 C39.61 17.72, 26.05 17.72, 0 17.72 M53.17 17.72 C39.44 17.72, 25.7 17.72, 0 17.72 M0 17.72 C0 11.06, 0 4.39, 0 0 M0 17.72 C0 13.88, 0 10.03, 0 0" stroke="#a61e4d" stroke-width="2" fill="none"></path></g><g transform="translate(180.54518065308594 417.5203221137348) rotate(0 10.08539408599313 5.635955518643236)"><text x="0" y="8.27191103728647" font-family="Virgil, Segoe UI Emoji" font-size="8.305618659053188px" fill="#a61e4d" text-anchor="start" style="white-space: pre;" direction="ltr">Cubo</text></g><g stroke-linecap="round"><g transform="translate(187.95451505651226 353.17610229450685) rotate(0 0.38996496860136176 29.0523901608029)"><path d="M0 0 C0.13 9.68, 0.65 48.42, 0.78 58.1 M0 0 C0.13 9.68, 0.65 48.42, 0.78 58.1" stroke="#a61e4d" stroke-width="2" fill="none"></path></g></g><g transform="translate(112.73745837018373 360.3134393588603) rotate(0 34.40899158750608 18.09438350722302)"><text x="34.408991587506065" y="7.047191753611511" font-family="Virgil, Segoe UI Emoji" font-size="6.789088225603378px" fill="#000000" text-anchor="middle" style="white-space: pre;" direction="ltr">E (0.75, 4, 1)</text><text x="34.408991587506065" y="16.09438350722302" font-family="Virgil, Segoe UI Emoji" font-size="6.789088225603378px" fill="#000000" text-anchor="middle" style="white-space: pre;" direction="ltr">T (0, -pierna.alto/2, 0)</text><text x="34.408991587506065" y="25.141575260834532" font-family="Virgil, Segoe UI Emoji" font-size="6.789088225603378px" fill="#000000" text-anchor="middle" style="white-space: pre;" direction="ltr">R (giro_piernas, x)</text><text x="34.408991587506065" y="34.18876701444604" font-family="Virgil, Segoe UI Emoji" font-size="6.789088225603378px" fill="#000000" text-anchor="middle" style="white-space: pre;" direction="ltr">T (pierna.ancho/2, 0, 0)</text></g><g stroke-linecap="round"><g transform="translate(274.1826121661652 413.288301734322) rotate(0 23.299336629703248 -83.6842979568063)"><path d="M0 0 C7.77 -27.89, 38.83 -139.47, 46.6 -167.37 M0 0 C7.77 -27.89, 38.83 -139.47, 46.6 -167.37" stroke="#a61e4d" stroke-width="2" fill="none"></path></g></g><g stroke-linecap="round"><g transform="translate(332.5514758550157 414.7206664874226) rotate(0 0.7562377977779988 -84.47068512536181)"><path d="M0 0 C0.25 -28.16, 1.26 -140.78, 1.51 -168.94 M0 0 C0.25 -28.16, 1.26 -140.78, 1.51 -168.94" stroke="#a61e4d" stroke-width="2" fill="none"></path></g></g><g stroke-linecap="round" transform="translate(241.2355205331778 414.61342541338166) rotate(0 26.585953117182953 8.861984372394346)"><path d="M0 0 C20.96 0, 41.93 0, 53.17 0 M0 0 C19.17 0, 38.34 0, 53.17 0 M53.17 0 C53.17 5.51, 53.17 11.02, 53.17 17.72 M53.17 0 C53.17 4.02, 53.17 8.03, 53.17 17.72 M53.17 17.72 C38.64 17.72, 24.11 17.72, 0 17.72 M53.17 17.72 C38.46 17.72, 23.75 17.72, 0 17.72 M0 17.72 C0 11.3, 0 4.87, 0 0 M0 17.72 C0 13.51, 0 9.3, 0 0" stroke="#a61e4d" stroke-width="2" fill="none"></path></g><g stroke-linecap="round" transform="translate(318.99833192042615 416.26138811860864) rotate(0 26.585953117182953 8.861984372394346)"><path d="M0 0 C19.17 0, 38.34 0, 53.17 0 M0 0 C16.53 0, 33.06 0, 53.17 0 M53.17 0 C53.17 4.02, 53.17 8.03, 53.17 17.72 M53.17 0 C53.17 4.84, 53.17 9.69, 53.17 17.72 M53.17 17.72 C38.46 17.72, 23.75 17.72, 0 17.72 M53.17 17.72 C33.9 17.72, 14.62 17.72, 0 17.72 M0 17.72 C0 13.51, 0 9.3, 0 0 M0 17.72 C0 13.14, 0 8.55, 0 0" stroke="#a61e4d" stroke-width="2" fill="none"></path></g><g transform="translate(247.41255560165905 417.36921111215617) rotate(0 17.79775426939966 5.635955518643236)"><text x="0" y="8.27191103728647" font-family="Virgil, Segoe UI Emoji" font-size="8.305618659053188px" fill="#a61e4d" text-anchor="start" style="white-space: pre;" direction="ltr">BrazoDch</text></g><g transform="translate(323.7782580250248 421.232947268999) rotate(0 16.017978842459684 5.635955518643229)"><text x="0" y="8.27191103728647" font-family="Virgil, Segoe UI Emoji" font-size="8.305618659053188px" fill="#a61e4d" text-anchor="start" style="white-space: pre;" direction="ltr">BrazoIzq</text></g><g stroke-linecap="round"><g transform="translate(365.28082449249837 242.66572539866334) rotate(0 26.2071233666112 38.826651528964646)"><path d="M0 0 C8.74 12.94, 43.68 64.71, 52.41 77.65 M0 0 C8.74 12.94, 43.68 64.71, 52.41 77.65" stroke="#a61e4d" stroke-width="2" fill="none"></path></g></g><g stroke-linecap="round"><g transform="translate(382.85082645125385 144.88348795735533) rotate(0 62.38171756214115 83.3784291978647)"><path d="M0 0 C20.79 27.79, 103.97 138.96, 124.76 166.76 M0 0 C20.79 27.79, 103.97 138.96, 124.76 166.76" stroke="#a61e4d" stroke-width="2" fill="none"></path></g></g><g stroke-linecap="round"><g transform="translate(345.8619035545082 434.7161005788551) rotate(0 6.812209513625021 28.17662954102694)"><path d="M0 0 C2.27 9.39, 11.35 46.96, 13.62 56.35 M0 0 C2.27 9.39, 11.35 46.96, 13.62 56.35" stroke="#a61e4d" stroke-width="2" fill="none"></path></g></g><g stroke-linecap="round"><g transform="translate(370.96704132141804 435.0080207854471) rotate(0 26.954703768471745 12.704858591651956)"><path d="M0 0 C8.98 4.23, 44.92 21.17, 53.91 25.41 M0 0 C8.98 4.23, 44.92 21.17, 53.91 25.41" stroke="#a61e4d" stroke-width="2" fill="none"></path></g></g><g stroke-linecap="round" transform="translate(332.6575727297045 493.16007264714614) rotate(0 26.585953117182953 8.861984372394346)"><path d="M0 0 C13.59 0, 27.19 0, 53.17 0 M0 0 C20.68 0, 41.37 0, 53.17 0 M53.17 0 C53.17 4.42, 53.17 8.84, 53.17 17.72 M53.17 0 C53.17 3.88, 53.17 7.76, 53.17 17.72 M53.17 17.72 C36.76 17.72, 20.35 17.72, 0 17.72 M53.17 17.72 C31.93 17.72, 10.69 17.72, 0 17.72 M0 17.72 C0 13.93, 0 10.14, 0 0 M0 17.72 C0 12.34, 0 6.96, 0 0" stroke="#a61e4d" stroke-width="2" fill="none"></path></g><g transform="translate(348.6507241339973 498.5123723021279) rotate(0 10.08539408599313 5.635955518643229)"><text x="0" y="8.27191103728647" font-family="Virgil, Segoe UI Emoji" font-size="8.305618659053188px" fill="#a61e4d" text-anchor="start" style="white-space: pre;" direction="ltr">Cubo</text></g><g transform="translate(356.9560985117348 467.6271065036544) rotate(0 24.91685597715957 5.339326280819904)"><text x="0" y="7.678652561639815" font-family="Virgil, Segoe UI Emoji" font-size="8.305618659053188px" fill="#000000" text-anchor="start" style="white-space: pre;" direction="ltr">E (0.5, 4, 1)</text></g><g stroke-linecap="round" transform="translate(424.73865444003377 454.9924974642232) rotate(0 26.585953117182953 8.861984372394346)"><path d="M0 0 C15.18 0, 30.36 0, 53.17 0 M0 0 C13.18 0, 26.36 0, 53.17 0 M53.17 0 C53.17 5.14, 53.17 10.28, 53.17 17.72 M53.17 0 C53.17 5.46, 53.17 10.92, 53.17 17.72 M53.17 17.72 C40.79 17.72, 28.42 17.72, 0 17.72 M53.17 17.72 C36.93 17.72, 20.69 17.72, 0 17.72 M0 17.72 C0 12.11, 0 6.49, 0 0 M0 17.72 C0 13.18, 0 8.65, 0 0" stroke="#a61e4d" stroke-width="2" fill="none"></path></g><g transform="translate(435.88664369874095 459.9640566146135) rotate(0 13.348315702049717 5.635955518643229)"><text x="0" y="8.27191103728647" font-family="Virgil, Segoe UI Emoji" font-size="8.30561865905319px" fill="#a61e4d" text-anchor="start" style="white-space: pre;" direction="ltr">Escudo</text></g><g transform="translate(399.7432960089395 434.67393953075987) rotate(0 23.730339025866215 5.339326280819904)"><text x="0" y="7.678652561639815" font-family="Virgil, Segoe UI Emoji" font-size="8.305618659053188px" fill="#000000" text-anchor="start" style="white-space: pre;" direction="ltr">T (0, -1, 0)</text></g><g stroke-linecap="round"><g transform="translate(463.27533588752704 525.6328933371964) rotate(0 -1.4449384246948966 26.693228655136323)"><path d="M0 0 C-0.48 8.9, -2.41 44.49, -2.89 53.39 M0 0 C-0.48 8.9, -2.41 44.49, -2.89 53.39" stroke="#a61e4d" stroke-width="2" fill="none"></path></g></g><g stroke-linecap="round"><g transform="translate(492.1095320678967 521.4388284382335) rotate(0 14.544934002601053 12.276130564951501)"><path d="M0 0 C4.85 4.09, 24.24 20.46, 29.09 24.55 M0 0 C4.85 4.09, 24.24 20.46, 29.09 24.55" stroke="#a61e4d" stroke-width="2" fill="none"></path></g></g><g transform="translate(439.83920719972684 588.5414423666608) rotate(0 10.08539408599313 5.635955518643243)"><text x="0" y="8.27191103728647" font-family="Virgil, Segoe UI Emoji" font-size="8.305618659053188px" fill="#a61e4d" text-anchor="start" style="white-space: pre;" direction="ltr">Cubo</text></g><g stroke-linecap="round" transform="translate(503.5089173962758 546.8214118124439) rotate(0 19.135421101517977 11.009420359777494)"><path d="M38.27 11.01 C38.27 11.65, 38.17 12.29, 37.98 12.92 C37.79 13.55, 37.5 14.18, 37.12 14.77 C36.74 15.37, 36.26 15.96, 35.71 16.51 C35.15 17.07, 34.51 17.6, 33.79 18.09 C33.08 18.57, 32.28 19.03, 31.44 19.44 C30.59 19.85, 29.66 20.23, 28.7 20.54 C27.74 20.86, 26.72 21.14, 25.68 21.35 C24.64 21.57, 23.55 21.74, 22.46 21.85 C21.37 21.96, 20.24 22.02, 19.14 22.02 C18.03 22.02, 16.9 21.96, 15.81 21.85 C14.72 21.74, 13.63 21.57, 12.59 21.35 C11.55 21.14, 10.53 20.86, 9.57 20.54 C8.61 20.23, 7.68 19.85, 6.84 19.44 C5.99 19.03, 5.19 18.57, 4.48 18.09 C3.76 17.6, 3.12 17.07, 2.56 16.51 C2.01 15.96, 1.53 15.37, 1.15 14.77 C0.78 14.18, 0.48 13.55, 0.29 12.92 C0.1 12.29, 0 11.65, 0 11.01 C0 10.37, 0.1 9.73, 0.29 9.1 C0.48 8.47, 0.78 7.84, 1.15 7.24 C1.53 6.65, 2.01 6.06, 2.56 5.5 C3.12 4.95, 3.76 4.42, 4.48 3.93 C5.19 3.44, 5.99 2.99, 6.84 2.58 C7.68 2.17, 8.61 1.79, 9.57 1.47 C10.53 1.16, 11.55 0.88, 12.59 0.66 C13.63 0.45, 14.72 0.28, 15.81 0.17 C16.9 0.06, 18.03 0, 19.14 0 C20.24 0, 21.37 0.06, 22.46 0.17 C23.55 0.28, 24.64 0.45, 25.68 0.66 C26.72 0.88, 27.74 1.16, 28.7 1.47 C29.66 1.79, 30.59 2.17, 31.44 2.58 C32.28 2.99, 33.08 3.44, 33.79 3.93 C34.51 4.42, 35.15 4.95, 35.71 5.5 C36.26 6.06, 36.74 6.65, 37.12 7.24 C37.5 7.84, 37.79 8.47, 37.98 9.1 C38.17 9.73, 38.22 10.69, 38.27 11.01 C38.32 11.33, 38.32 10.69, 38.27 11.01" stroke="#a61e4d" stroke-width="2" fill="none"></path></g><g transform="translate(509.27575663234984 552.5882510485177) rotate(0 13.348315702049717 5.635955518643243)"><text x="0" y="8.27191103728647" font-family="Virgil, Segoe UI Emoji" font-size="8.30561865905319px" fill="#a61e4d" text-anchor="start" style="white-space: pre;" direction="ltr">Mango</text></g><g stroke-linecap="round" transform="translate(427.6427017162796 582.5213669915298) rotate(0 26.585953117182953 8.861984372394346)"><path d="M0 0 C10.84 0, 21.68 0, 53.17 0 M0 0 C18.27 0, 36.54 0, 53.17 0 M53.17 0 C53.17 5.19, 53.17 10.38, 53.17 17.72 M53.17 0 C53.17 7.07, 53.17 14.13, 53.17 17.72 M53.17 17.72 C36.76 17.72, 20.35 17.72, 0 17.72 M53.17 17.72 C35.3 17.72, 17.43 17.72, 0 17.72 M0 17.72 C0 10.66, 0 3.6, 0 0 M0 17.72 C0 11.22, 0 4.71, 0 0" stroke="#a61e4d" stroke-width="2" fill="none"></path></g><g stroke-linecap="round"><g transform="translate(532.7395357765995 566.5250261020841) rotate(0 0.6520940247866065 22.76129281235862)"><path d="M0 0 C0.22 7.59, 1.09 37.94, 1.3 45.52 M0 0 C0.22 7.59, 1.09 37.94, 1.3 45.52" stroke="#a61e4d" stroke-width="2" fill="none"></path></g></g><g transform="translate(388.4196660914149 547.2489247676979) rotate(0 48.35056576520253 16.017978842459712)"><text x="48.35056576520249" y="6.678652561639813" font-family="Virgil, Segoe UI Emoji" font-size="8.305618659053186px" fill="#000000" text-anchor="middle" style="white-space: pre;" direction="ltr">E (2, 4, 0.1)</text><text x="48.35056576520249" y="17.357305123279627" font-family="Virgil, Segoe UI Emoji" font-size="8.305618659053186px" fill="#000000" text-anchor="middle" style="white-space: pre;" direction="ltr">T(0,0,radio* cos(PI/4))</text><text x="48.35056576520249" y="28.03595768491944" font-family="Virgil, Segoe UI Emoji" font-size="8.305618659053186px" fill="#000000" text-anchor="middle" style="white-space: pre;" direction="ltr">R(90, Z)</text></g><g transform="translate(523.2371846907054 620.2306594998519) rotate(0 14.534832653343074 5.635955518643243)"><text x="0" y="8.27191103728647" font-family="Virgil, Segoe UI Emoji" font-size="8.305618659053188px" fill="#a61e4d" text-anchor="start" style="white-space: pre;" direction="ltr">Cilindro</text></g><g stroke-linecap="round" transform="translate(511.0406792072579 614.2105841247208) rotate(0 26.585953117182953 8.861984372394346)"><path d="M0 0 C16.81 0, 33.63 0, 53.17 0 M0 0 C13.08 0, 26.17 0, 53.17 0 M53.17 0 C53.17 5.35, 53.17 10.7, 53.17 17.72 M53.17 0 C53.17 5.47, 53.17 10.94, 53.17 17.72 M53.17 17.72 C35.28 17.72, 17.39 17.72, 0 17.72 M53.17 17.72 C33.48 17.72, 13.79 17.72, 0 17.72 M0 17.72 C0 10.77, 0 3.82, 0 0 M0 17.72 C0 14.17, 0 10.61, 0 0" stroke="#a61e4d" stroke-width="2" fill="none"></path></g><g transform="translate(541.0197144152803 586.8020135864442) rotate(0 16.907866555929672 5.339326280819904)"><text x="0" y="7.678652561639815" font-family="Virgil, Segoe UI Emoji" font-size="8.305618659053188px" fill="#000000" text-anchor="start" style="white-space: pre;" direction="ltr">R(90, Y)</text></g><g stroke-linecap="round" transform="translate(435.3963004122211 493.5808147416371) rotate(0 35.911680697369434 15.989872427295921)"><path d="M71.82 15.99 C71.82 16.92, 71.64 17.86, 71.28 18.77 C70.92 19.68, 70.37 20.59, 69.66 21.46 C68.95 22.33, 68.05 23.18, 67.01 23.98 C65.97 24.79, 64.76 25.56, 63.42 26.27 C62.09 26.98, 60.59 27.64, 59 28.24 C57.4 28.83, 55.67 29.37, 53.87 29.84 C52.07 30.3, 50.15 30.7, 48.19 31.02 C46.24 31.33, 44.19 31.58, 42.15 31.74 C40.1 31.9, 37.99 31.98, 35.91 31.98 C33.83 31.98, 31.72 31.9, 29.68 31.74 C27.63 31.58, 25.58 31.33, 23.63 31.02 C21.68 30.7, 19.76 30.3, 17.96 29.84 C16.16 29.37, 14.42 28.83, 12.83 28.24 C11.24 27.64, 9.74 26.98, 8.4 26.27 C7.07 25.56, 5.85 24.79, 4.81 23.98 C3.77 23.18, 2.88 22.33, 2.17 21.46 C1.45 20.59, 0.91 19.68, 0.55 18.77 C0.18 17.86, 0 16.92, 0 15.99 C0 15.06, 0.18 14.12, 0.55 13.21 C0.91 12.3, 1.45 11.39, 2.17 10.52 C2.88 9.65, 3.77 8.8, 4.81 7.99 C5.85 7.19, 7.07 6.42, 8.4 5.71 C9.74 5, 11.24 4.34, 12.83 3.74 C14.42 3.15, 16.16 2.61, 17.96 2.14 C19.76 1.68, 21.68 1.28, 23.63 0.96 C25.58 0.65, 27.63 0.4, 29.68 0.24 C31.72 0.08, 33.83 0, 35.91 0 C37.99 0, 40.1 0.08, 42.15 0.24 C44.19 0.4, 46.24 0.65, 48.19 0.96 C50.15 1.28, 52.07 1.68, 53.87 2.14 C55.67 2.61, 57.4 3.15, 59 3.74 C60.59 4.34, 62.09 5, 63.42 5.71 C64.76 6.42, 65.97 7.19, 67.01 7.99 C68.05 8.8, 68.95 9.65, 69.66 10.52 C70.37 11.39, 70.92 12.3, 71.28 13.21 C71.64 14.12, 71.73 15.53, 71.82 15.99 C71.91 16.45, 71.91 15.53, 71.82 15.99" stroke="#a61e4d" stroke-width="2" fill="none"></path></g><g stroke-linecap="round"><g transform="translate(463.18198036785 494.10507285400746) rotate(0 -4.718323011333268 -10.747291303592306)"><path d="M0 0 C-1.57 -3.58, -7.86 -17.91, -9.44 -21.49 M0 0 C-1.57 -3.58, -7.86 -17.91, -9.44 -21.49" stroke="#a61e4d" stroke-width="2" fill="none"></path></g></g><g transform="translate(464.6231477448828 479.85335866289154) rotate(0 14.08988879660808 5.635955518643229)"><text x="0" y="8.27191103728647" font-family="Virgil, Segoe UI Emoji" font-size="8.305618659053188px" fill="#000000" text-anchor="start" style="white-space: pre;" direction="ltr">R(90, Y)</text></g><g transform="translate(458.6564244281021 503.5036601904747) rotate(0 11.865169512933107 5.635955518643229)"><text x="11.865169512933127" y="8.27191103728647" font-family="Virgil, Segoe UI Emoji" font-size="8.305618659053188px" fill="#a61e4d" text-anchor="middle" style="white-space: pre;" direction="ltr">t_local</text></g><g stroke-linecap="round" transform="translate(299.1342127835585 219.083697998141) rotate(0 40.36787465251746 13.368581865444092)"><path d="M80.74 13.37 C80.74 14.14, 80.53 14.93, 80.12 15.69 C79.72 16.45, 79.1 17.21, 78.3 17.94 C77.5 18.67, 76.5 19.38, 75.33 20.05 C74.16 20.72, 72.79 21.37, 71.29 21.96 C69.79 22.55, 68.11 23.11, 66.32 23.61 C64.53 24.11, 62.58 24.56, 60.55 24.95 C58.53 25.33, 56.37 25.67, 54.17 25.93 C51.98 26.2, 49.68 26.4, 47.38 26.53 C45.08 26.67, 42.7 26.74, 40.37 26.74 C38.03 26.74, 35.66 26.67, 33.36 26.53 C31.06 26.4, 28.76 26.2, 26.56 25.93 C24.37 25.67, 22.21 25.33, 20.18 24.95 C18.16 24.56, 16.21 24.11, 14.42 23.61 C12.63 23.11, 10.95 22.55, 9.44 21.96 C7.94 21.37, 6.58 20.72, 5.41 20.05 C4.24 19.38, 3.23 18.67, 2.43 17.94 C1.64 17.21, 1.02 16.45, 0.61 15.69 C0.21 14.93, 0 14.14, 0 13.37 C0 12.59, 0.21 11.81, 0.61 11.05 C1.02 10.29, 1.64 9.52, 2.43 8.8 C3.23 8.07, 4.24 7.35, 5.41 6.68 C6.58 6.01, 7.94 5.37, 9.44 4.78 C10.95 4.18, 12.63 3.63, 14.42 3.13 C16.21 2.63, 18.16 2.18, 20.18 1.79 C22.21 1.4, 24.37 1.07, 26.56 0.81 C28.76 0.54, 31.06 0.34, 33.36 0.2 C35.66 0.07, 38.03 0, 40.37 0 C42.7 0, 45.08 0.07, 47.38 0.2 C49.68 0.34, 51.98 0.54, 54.17 0.81 C56.37 1.07, 58.53 1.4, 60.55 1.79 C62.58 2.18, 64.53 2.63, 66.32 3.13 C68.11 3.63, 69.79 4.18, 71.29 4.78 C72.79 5.37, 74.16 6.01, 75.33 6.68 C76.5 7.35, 77.5 8.07, 78.3 8.8 C79.1 9.52, 79.72 10.29, 80.12 11.05 C80.53 11.81, 80.63 12.98, 80.74 13.37 C80.84 13.76, 80.84 12.98, 80.74 13.37" stroke="#a61e4d" stroke-width="2" fill="none"></path></g><g stroke-linecap="round"><g transform="translate(317.275978548927 150.3393204859826) rotate(0 7.967505769352329 33.92667082212081)"><path d="M0 0 C2.66 11.31, 13.28 56.54, 15.94 67.85 M0 0 C2.66 11.31, 13.28 56.54, 15.94 67.85" stroke="#a61e4d" stroke-width="2" fill="none"></path></g></g><g stroke-linecap="round"><g transform="translate(241.9329461204543 433.35663125004515) rotate(0 -17.824775820592095 33.29039013551764)"><path d="M0 0 C-5.94 11.1, -29.71 55.48, -35.65 66.58 M0 0 C-5.94 11.1, -29.71 55.48, -35.65 66.58" stroke="#a61e4d" stroke-width="2" fill="none"></path></g></g><g stroke-linecap="round"><g transform="translate(283.873595110083 433.35663125004515) rotate(0 0 31.979744854591758)"><path d="M0 0 C0 10.66, 0 53.3, 0 63.96 M0 0 C0 10.66, 0 53.3, 0 63.96" stroke="#a61e4d" stroke-width="2" fill="none"></path></g></g><g stroke-linecap="round" transform="translate(259.9089325547518 498.415040721871) rotate(0 26.585953117182953 8.861984372394346)"><path d="M0 0 C13.09 0, 26.18 0, 53.17 0 M0 0 C16.65 0, 33.31 0, 53.17 0 M53.17 0 C53.17 5.98, 53.17 11.96, 53.17 17.72 M53.17 0 C53.17 5.66, 53.17 11.32, 53.17 17.72 M53.17 17.72 C33.12 17.72, 13.07 17.72, 0 17.72 M53.17 17.72 C31.99 17.72, 10.8 17.72, 0 17.72 M0 17.72 C0 13.27, 0 8.82, 0 0 M0 17.72 C0 12.45, 0 7.18, 0 0" stroke="#a61e4d" stroke-width="2" fill="none"></path></g><g transform="translate(275.90208395904483 503.7673403768528) rotate(0 9.788764848169876 5.339326280819904)"><text x="0" y="7.678652561639815" font-family="Virgil, Segoe UI Emoji" font-size="8.305618659053188px" fill="#a61e4d" text-anchor="start" style="white-space: pre;" direction="ltr">Cubo</text></g><g transform="translate(286.7424190885522 480.96737431863136) rotate(0 24.91685597715957 5.339326280819904)"><text x="0" y="7.678652561639815" font-family="Virgil, Segoe UI Emoji" font-size="8.305618659053188px" fill="#000000" text-anchor="start" style="white-space: pre;" direction="ltr">E (0.5, 4, 1)</text></g><g stroke-linecap="round" transform="translate(177.07615080023538 499.9878150589821) rotate(0 26.585953117182953 8.861984372394346)"><path d="M0 0 C18.24 0, 36.48 0, 53.17 0 M0 0 C19.73 0, 39.46 0, 53.17 0 M53.17 0 C53.17 3.63, 53.17 7.25, 53.17 17.72 M53.17 0 C53.17 3.8, 53.17 7.61, 53.17 17.72 M53.17 17.72 C38.94 17.72, 24.7 17.72, 0 17.72 M53.17 17.72 C39.41 17.72, 25.64 17.72, 0 17.72 M0 17.72 C0 12.34, 0 6.96, 0 0 M0 17.72 C0 10.68, 0 3.63, 0 0" stroke="#a61e4d" stroke-width="2" fill="none"></path></g><g transform="translate(187.3024629684544 505.8643728263345) rotate(0 15.276405747901435 5.339326280819904)"><text x="0" y="7.678652561639815" font-family="Virgil, Segoe UI Emoji" font-size="8.305618659053188px" fill="#a61e4d" text-anchor="start" style="white-space: pre;" direction="ltr">Espada</text></g><g stroke-linecap="round"><g transform="translate(178.4977145236412 517.2379292293022) rotate(0 -24.115873169036377 20.708195438629048)"><path d="M0 0 C-8.04 6.9, -40.19 34.51, -48.23 41.42 M0 0 C-8.04 6.9, -40.19 34.51, -48.23 41.42" stroke="#a61e4d" stroke-width="2" fill="none"></path></g></g><g stroke-linecap="round"><g transform="translate(202.08932958030732 517.7621873416725) rotate(0 0.5242581123703758 23.591615056666058)"><path d="M0 0 C0.17 7.86, 0.87 39.32, 1.05 47.18 M0 0 C0.17 7.86, 0.87 39.32, 1.05 47.18" stroke="#a61e4d" stroke-width="2" fill="none"></path></g></g><g stroke-linecap="round"><g transform="translate(231.9720419854175 516.1894130045616) rotate(0 15.989872427295836 23.591615056666058)"><path d="M0 0 C5.33 7.86, 26.65 39.32, 31.98 47.18 M0 0 C5.33 7.86, 26.65 39.32, 31.98 47.18" stroke="#a61e4d" stroke-width="2" fill="none"></path></g></g><g stroke-linecap="round" transform="translate(98.43743394468174 558.1804655320918) rotate(0 28.682985566664456 9.648371540949881)"><path d="M0 0 C19.67 0, 39.34 0, 57.37 0 M0 0 C21.45 0, 42.89 0, 57.37 0 M57.37 0 C57.37 5.95, 57.37 11.89, 57.37 19.3 M57.37 0 C57.37 4.73, 57.37 9.46, 57.37 19.3 M57.37 19.3 C40.9 19.3, 24.43 19.3, 0 19.3 M57.37 19.3 C39.12 19.3, 20.87 19.3, 0 19.3 M0 19.3 C0 11.63, 0 3.97, 0 0 M0 19.3 C0 15.32, 0 11.34, 0 0" stroke="#a61e4d" stroke-width="2" fill="none"></path></g><g transform="translate(100.29902379878308 563.5327651870737) rotate(0 27.43820449865791 5.339326280819904)"><text x="0" y="7.678652561639815" font-family="Virgil, Segoe UI Emoji" font-size="8.305618659053188px" fill="#a61e4d" text-anchor="start" style="white-space: pre;" direction="ltr">Cuerpo (hoja)</text></g><g stroke-linecap="round" transform="translate(174.97911835075388 567.6171115547581) rotate(0 26.585953117182953 8.861984372394346)"><path d="M0 0 C15.44 0, 30.89 0, 53.17 0 M0 0 C13.75 0, 27.5 0, 53.17 0 M53.17 0 C53.17 6.29, 53.17 12.58, 53.17 17.72 M53.17 0 C53.17 5.31, 53.17 10.61, 53.17 17.72 M53.17 17.72 C36.96 17.72, 20.76 17.72, 0 17.72 M53.17 17.72 C38.15 17.72, 23.13 17.72, 0 17.72 M0 17.72 C0 11.49, 0 5.25, 0 0 M0 17.72 C0 13.72, 0 9.71, 0 0" stroke="#a61e4d" stroke-width="2" fill="none"></path></g><g transform="translate(185.2054305189729 573.4936693221106) rotate(0 9.492135610346509 5.339326280819904)"><text x="0" y="7.678652561639815" font-family="Virgil, Segoe UI Emoji" font-size="8.305618659053188px" fill="#a61e4d" text-anchor="start" style="white-space: pre;" direction="ltr">Cruz</text></g><g stroke-linecap="round" transform="translate(249.948028419715 563.9473047681655) rotate(0 26.585953117182953 8.861984372394346)"><path d="M0 0 C11.78 0, 23.56 0, 53.17 0 M0 0 C19.17 0, 38.33 0, 53.17 0 M53.17 0 C53.17 5.46, 53.17 10.92, 53.17 17.72 M53.17 0 C53.17 6.06, 53.17 12.12, 53.17 17.72 M53.17 17.72 C41.36 17.72, 29.54 17.72, 0 17.72 M53.17 17.72 C40.85 17.72, 28.53 17.72, 0 17.72 M0 17.72 C0 13.22, 0 8.72, 0 0 M0 17.72 C0 12.1, 0 6.47, 0 0" stroke="#a61e4d" stroke-width="2" fill="none"></path></g><g transform="translate(259.65008247556375 569.823862535518) rotate(0 12.458427988579729 5.339326280819904)"><text x="0" y="7.678652561639815" font-family="Virgil, Segoe UI Emoji" font-size="8.305618659053188px" fill="#a61e4d" text-anchor="start" style="white-space: pre;" direction="ltr">Punta</text></g><g stroke-linecap="round"><g transform="translate(111.429883517382 578.3708871185436) rotate(0 0 31.979744854591758)"><path d="M0 0 C0 10.66, 0 53.3, 0 63.96 M0 0 C0 10.66, 0 53.3, 0 63.96" stroke="#a61e4d" stroke-width="2" fill="none"></path></g></g><g stroke-linecap="round" transform="translate(87.46522096205058 643.4292965903695) rotate(0 26.585953117182953 8.861984372394346)"><path d="M0 0 C20.16 0, 40.31 0, 53.17 0 M0 0 C12.62 0, 25.23 0, 53.17 0 M53.17 0 C53.17 6.92, 53.17 13.84, 53.17 17.72 M53.17 0 C53.17 3.76, 53.17 7.51, 53.17 17.72 M53.17 17.72 C40.07 17.72, 26.97 17.72, 0 17.72 M53.17 17.72 C35.16 17.72, 17.15 17.72, 0 17.72 M0 17.72 C0 13.7, 0 9.68, 0 0 M0 17.72 C0 12.5, 0 7.27, 0 0" stroke="#a61e4d" stroke-width="2" fill="none"></path></g><g transform="translate(103.45837236634384 648.7815962453515) rotate(0 9.788764848169876 5.339326280819904)"><text x="0" y="7.678652561639815" font-family="Virgil, Segoe UI Emoji" font-size="8.305618659053188px" fill="#a61e4d" text-anchor="start" style="white-space: pre;" direction="ltr">Cubo</text></g><g transform="translate(114.29870749585098 610.2538868160193) rotate(0 29.366294544509515 10.678652561639808)"><text x="0" y="7.678652561639815" font-family="Virgil, Segoe UI Emoji" font-size="8.305618659053188px" fill="#000000" text-anchor="start" style="white-space: pre;" direction="ltr">E (0.3, 4, 0.1)</text><text x="0" y="18.35730512327963" font-family="Virgil, Segoe UI Emoji" font-size="8.305618659053188px" fill="#000000" text-anchor="start" style="white-space: pre;" direction="ltr">T (0, alto, 0)</text></g><g transform="translate(178.61728259543838 466.0577041452202) rotate(0 16.907866555929672 5.339326280819904)"><text x="0" y="7.678652561639815" font-family="Virgil, Segoe UI Emoji" font-size="8.305618659053188px" fill="#000000" text-anchor="start" style="white-space: pre;" direction="ltr">R(90, Y)</text></g><g transform="translate(185.43263805625293 452.4269932235909) rotate(0 17.20449579375304 5.339326280819904)"><text x="0" y="7.678652561639815" font-family="Virgil, Segoe UI Emoji" font-size="8.30561865905319px" fill="#000000" text-anchor="start" style="white-space: pre;" direction="ltr">R(90, X)</text></g><g transform="translate(200.49100557931888 606.0346201481054) rotate(0 34.55730620641771 10.678652561639808)"><text x="0" y="7.678652561639815" font-family="Virgil, Segoe UI Emoji" font-size="8.305618659053186px" fill="#000000" text-anchor="start" style="white-space: pre;" direction="ltr">E (0.9, 0.3, 0.3)</text><text x="0" y="18.35730512327963" font-family="Virgil, Segoe UI Emoji" font-size="8.305618659053186px" fill="#000000" text-anchor="start" style="white-space: pre;" direction="ltr">T (0, 0.72, 0)</text></g><g stroke-linecap="round"><g transform="translate(194.47663292662742 584.6367826980372) rotate(0 0 31.979744854591758)"><path d="M0 0 C0 10.66, 0 53.3, 0 63.96 M0 0 C0 10.66, 0 53.3, 0 63.96" stroke="#a61e4d" stroke-width="2" fill="none"></path></g></g><g stroke-linecap="round" transform="translate(170.51197037129623 649.6951921698628) rotate(0 26.585953117182953 8.861984372394346)"><path d="M0 0 C13.66 0, 27.33 0, 53.17 0 M0 0 C14.82 0, 29.64 0, 53.17 0 M53.17 0 C53.17 5.18, 53.17 10.36, 53.17 17.72 M53.17 0 C53.17 3.57, 53.17 7.14, 53.17 17.72 M53.17 17.72 C38.11 17.72, 23.04 17.72, 0 17.72 M53.17 17.72 C36.21 17.72, 19.25 17.72, 0 17.72 M0 17.72 C0 11.54, 0 5.35, 0 0 M0 17.72 C0 13.71, 0 9.7, 0 0" stroke="#a61e4d" stroke-width="2" fill="none"></path></g><g transform="translate(186.50512177558926 655.0474918248448) rotate(0 9.788764848169876 5.339326280819904)"><text x="0" y="7.678652561639815" font-family="Virgil, Segoe UI Emoji" font-size="8.305618659053188px" fill="#a61e4d" text-anchor="start" style="white-space: pre;" direction="ltr">Cubo</text></g><g stroke-linecap="round"><g transform="translate(299.60803415304827 581.838685944479) rotate(0 0 31.979744854591758)"><path d="M0 0 C0 10.66, 0 53.3, 0 63.96 M0 0 C0 10.66, 0 53.3, 0 63.96" stroke="#a61e4d" stroke-width="2" fill="none"></path></g></g><g transform="translate(291.6365230020101 652.2493950712866) rotate(0 9.788764848169876 5.339326280819904)"><text x="0" y="7.678652561639815" font-family="Virgil, Segoe UI Emoji" font-size="8.305618659053188px" fill="#a61e4d" text-anchor="start" style="white-space: pre;" direction="ltr">Cubo</text></g><g stroke-linecap="round" transform="translate(275.3635928453675 645.5011272709) rotate(0 26.585953117182953 8.861984372394346)"><path d="M0 0 C17.59 0, 35.17 0, 53.17 0 M0 0 C13.24 0, 26.48 0, 53.17 0 M53.17 0 C53.17 4.93, 53.17 9.87, 53.17 17.72 M53.17 0 C53.17 4.34, 53.17 8.69, 53.17 17.72 M53.17 17.72 C40.4 17.72, 27.63 17.72, 0 17.72 M53.17 17.72 C42.23 17.72, 31.29 17.72, 0 17.72 M0 17.72 C0 12.71, 0 7.69, 0 0 M0 17.72 C0 12.1, 0 6.47, 0 0" stroke="#a61e4d" stroke-width="2" fill="none"></path></g><g transform="translate(301.99327517257643 600.1710357549151) rotate(0 66.88989312916055 16.017978842459712)"><text x="0" y="6.678652561639813" font-family="Virgil, Segoe UI Emoji" font-size="8.30561865905319px" fill="#000000" text-anchor="start" style="white-space: pre;" direction="ltr">R(45, Z)</text><text x="0" y="17.357305123279627" font-family="Virgil, Segoe UI Emoji" font-size="8.30561865905319px" fill="#000000" text-anchor="start" style="white-space: pre;" direction="ltr">E (0.3/sqrt(2), 0.3/sqrt(2), 0.1)</text><text x="0" y="28.03595768491944" font-family="Virgil, Segoe UI Emoji" font-size="8.30561865905319px" fill="#000000" text-anchor="start" style="white-space: pre;" direction="ltr">T (0, 2, 0)</text></g><g transform="translate(348.99405210668215 308.2560123217426) rotate(0 49.83371195431914 5.339326280819908)"><text x="0" y="7.678652561639815" font-family="Virgil, Segoe UI Emoji" font-size="8.305618659053188px" fill="#000000" text-anchor="start" style="white-space: pre;" direction="ltr">T (0, cabeza.alto/2, 0)</text></g><g transform="translate(299.82332223393405 201.30735739818996) rotate(0 43.30786872220597 5.339326280819904)"><text x="0" y="7.678652561639815" font-family="Virgil, Segoe UI Emoji" font-size="8.305618659053188px" fill="#000000" text-anchor="start" style="white-space: pre;" direction="ltr">T (0, tronco.alto, 0)</text></g><g stroke-linecap="round" transform="translate(475.208970924004 313.2966163153283) rotate(0 26.585953117182953 8.86198437239434)"><path d="M0 0 C19.21 0, 38.42 0, 53.17 0 M0 0 C11.91 0, 23.81 0, 53.17 0 M53.17 0 C53.17 5.43, 53.17 10.85, 53.17 17.72 M53.17 0 C53.17 3.98, 53.17 7.96, 53.17 17.72 M53.17 17.72 C36.48 17.72, 19.78 17.72, 0 17.72 M53.17 17.72 C32.77 17.72, 12.36 17.72, 0 17.72 M0 17.72 C0 12.44, 0 7.17, 0 0 M0 17.72 C0 12.08, 0 6.43, 0 0" stroke="#a61e4d" stroke-width="2" fill="none"></path></g><g transform="translate(483.1055635293196 317.5597753507062) rotate(0 14.08988879660808 5.339326280819908)"><text x="0" y="7.678652561639815" font-family="Virgil, Segoe UI Emoji" font-size="8.305618659053188px" fill="#a61e4d" text-anchor="start" style="white-space: pre;" direction="ltr">Tronco</text></g><g stroke-linecap="round" transform="translate(476.0396543977331 392.6335848211536) rotate(0 26.585953117182953 8.861984372394339)"><path d="M0 0 C13.33 0, 26.66 0, 53.17 0 M0 0 C14.02 0, 28.03 0, 53.17 0 M53.17 0 C53.17 6.56, 53.17 13.13, 53.17 17.72 M53.17 0 C53.17 5.47, 53.17 10.93, 53.17 17.72 M53.17 17.72 C33.67 17.72, 14.16 17.72, 0 17.72 M53.17 17.72 C33.5 17.72, 13.84 17.72, 0 17.72 M0 17.72 C0 11.05, 0 4.38, 0 0 M0 17.72 C0 11.18, 0 4.64, 0 0" stroke="#a61e4d" stroke-width="2" fill="none"></path></g><g transform="translate(492.0328058020259 397.98588447613554) rotate(0 9.788764848169876 5.339326280819904)"><text x="0" y="7.678652561639815" font-family="Virgil, Segoe UI Emoji" font-size="8.305618659053188px" fill="#a61e4d" text-anchor="start" style="white-space: pre;" direction="ltr">Cubo</text></g><g stroke-linecap="round"><g transform="translate(499.44214020545223 333.6416646569076) rotate(0 0.38996496860136176 29.0523901608029)"><path d="M0 0 C0.13 9.68, 0.65 48.42, 0.78 58.1 M0 0 C0.13 9.68, 0.65 48.42, 0.78 58.1" stroke="#a61e4d" stroke-width="2" fill="none"></path></g></g><g transform="translate(505.6276996614347 358.12831779260534) rotate(0 23.43370978804296 5.339326280819904)"><text x="0" y="7.678652561639815" font-family="Virgil, Segoe UI Emoji" font-size="8.305618659053186px" fill="#000000" text-anchor="start" style="white-space: pre;" direction="ltr">E (1.5, 3, 1)</text></g><g stroke-linecap="round" transform="translate(389.5835924969201 321.36815886931583) rotate(0 26.585953117182953 8.861984372394339)"><path d="M0 0 C14.86 0, 29.72 0, 53.17 0 M0 0 C18.47 0, 36.94 0, 53.17 0 M53.17 0 C53.17 5.26, 53.17 10.52, 53.17 17.72 M53.17 0 C53.17 6.63, 53.17 13.25, 53.17 17.72 M53.17 17.72 C39.79 17.72, 26.41 17.72, 0 17.72 M53.17 17.72 C38.56 17.72, 23.94 17.72, 0 17.72 M0 17.72 C0 10.9, 0 4.07, 0 0 M0 17.72 C0 11.15, 0 4.57, 0 0" stroke="#a61e4d" stroke-width="2" fill="none"></path></g><g transform="translate(397.06484336537096 323.9699509572371) rotate(0 15.276405747901435 5.339326280819908)"><text x="0" y="7.678652561639815" font-family="Virgil, Segoe UI Emoji" font-size="8.305618659053188px" fill="#a61e4d" text-anchor="start" style="white-space: pre;" direction="ltr">Cabeza</text></g><g stroke-linecap="round" transform="translate(397.0597437604754 400.28978563827695) rotate(0 26.585953117182953 8.861984372394339)"><path d="M0 0 C13.7 0, 27.4 0, 53.17 0 M0 0 C17.18 0, 34.36 0, 53.17 0 M53.17 0 C53.17 4.88, 53.17 9.76, 53.17 17.72 M53.17 0 C53.17 3.82, 53.17 7.63, 53.17 17.72 M53.17 17.72 C38.39 17.72, 23.6 17.72, 0 17.72 M53.17 17.72 C37.17 17.72, 21.17 17.72, 0 17.72 M0 17.72 C0 13.44, 0 9.15, 0 0 M0 17.72 C0 12.55, 0 7.38, 0 0" stroke="#a61e4d" stroke-width="2" fill="none"></path></g><g transform="translate(413.0528951647682 405.6420852932588) rotate(0 9.788764848169876 5.339326280819904)"><text x="0" y="7.678652561639815" font-family="Virgil, Segoe UI Emoji" font-size="8.305618659053188px" fill="#a61e4d" text-anchor="start" style="white-space: pre;" direction="ltr">Cubo</text></g><g stroke-linecap="round"><g transform="translate(420.46222956819474 341.297865474031) rotate(0 0.38996496860136176 29.0523901608029)"><path d="M0 0 C0.13 9.68, 0.65 48.42, 0.78 58.1 M0 0 C0.13 9.68, 0.65 48.42, 0.78 58.1" stroke="#a61e4d" stroke-width="2" fill="none"></path></g></g><g transform="translate(394.39495096293854 363.10225675239536) rotate(0 22.098878217837978 5.339326280819904)"><text x="0" y="7.678652561639815" font-family="Virgil, Segoe UI Emoji" font-size="8.305618659053188px" fill="#000000" text-anchor="start" style="white-space: pre;" direction="ltr">E (1, 1, 1.2)</text></g><g transform="translate(461.5295667276728 231.19006980330022) rotate(0 48.35056576520253 5.339326280819908)"><text x="0" y="7.678652561639815" font-family="Virgil, Segoe UI Emoji" font-size="8.305618659053186px" fill="#000000" text-anchor="start" style="white-space: pre;" direction="ltr">T (0, tronco.alto/2, 0)</text></g><g transform="translate(83.14547236659087 314.35993844091735) rotate(0 1.6314608080283506 6.229213994289893)"><text x="0" y="8.458427988579784" font-family="Virgil, Segoe UI Emoji" font-size="9.524765413165973px" fill="#2b8a3e" text-anchor="start" style="white-space: pre;" direction="ltr">1</text></g><g transform="translate(181.32975008611265 317.3262308191507) rotate(0 3.707865472791582 6.229213994289893)"><text x="0" y="8.458427988579784" font-family="Virgil, Segoe UI Emoji" font-size="9.524765413165971px" fill="#2b8a3e" text-anchor="start" style="white-space: pre;" direction="ltr">2</text></g><g transform="translate(256.8218911121496 396.8228665558026) rotate(0 3.559550853879955 6.229213994289893)"><text x="0" y="8.458427988579784" font-family="Virgil, Segoe UI Emoji" font-size="9.524765413165973px" fill="#2b8a3e" text-anchor="start" style="white-space: pre;" direction="ltr">3</text></g><g transform="translate(517.2623619210317 301.30825197669094) rotate(0 3.411236234968328 6.229213994289892)"><text x="0" y="8.458427988579784" font-family="Virgil, Segoe UI Emoji" font-size="9.524765413165973px" fill="#2b8a3e" text-anchor="start" style="white-space: pre;" direction="ltr">4</text></g><g transform="translate(348.7769548373815 397.41612503144927) rotate(0 3.2629216160565875 6.229213994289893)"><text x="0" y="8.458427988579784" font-family="Virgil, Segoe UI Emoji" font-size="9.524765413165973px" fill="#2b8a3e" text-anchor="start" style="white-space: pre;" direction="ltr">5</text></g><g transform="translate(446.07134484343305 325.03859100255715) rotate(0 3.411236234968328 6.229213994289893)"><text x="0" y="8.458427988579784" font-family="Virgil, Segoe UI Emoji" font-size="9.524765413165973px" fill="#2b8a3e" text-anchor="start" style="white-space: pre;" direction="ltr">6</text></g></svg>